<svg width="100%" height="100%" viewBox="0 0 2427 800" fill="none" xmlns="http://www.w3.org/2000/svg">
<path fill-rule="evenodd" clip-rule="evenodd" d="M2214.56 451.893L2155.85 404.696L2165.78 383.166L2188.13 332.674L2211.31 283.013L2064.81 349.224L2093.76 291.288L2133.5 274.738L2116.94 238.319L2093.76 291.275L2064.81 349.211L2052.39 374.074L2065.63 385.669L2188.1 332.7L2165.76 383.192L2010.97 451.88L1967.97 410.493L1868.64 451.88L1852.11 319.471L1782.58 465.135H1691.56L1708.09 433.67L1620.36 473.383L1582.29 435.33L1476.37 481.658L1439.94 446.899L1352.21 484.978L1310.85 443.592L1315.82 402.218L1386.97 254.908L1360.5 225.116L1347.26 230.084L1251.26 430.35L1315.83 402.218L1310.87 443.592L1216.51 484.978L1163.56 430.337L1196.67 359.172L1173.49 350.897L1142.04 418.755L1001.36 499.881L956.676 455.2L870.608 508.142L817.64 453.527L721.651 508.142L675.31 460.141L580.968 516.43L529.659 455.2L413.787 536.287L369.107 455.2L532.967 107.597L476.691 125.807L276.425 542.927L178.762 544.574L384.009 119.192L326.073 137.402L132.421 544.574L31.4517 546.222L211.861 173.821L54.6027 193.665L392.258 0L359.159 67.8708L438.599 29.7916L466.73 82.7601L575.974 26.4843L627.283 119.166L465.083 456.821L547.843 398.885L645.492 193.639H736.527L633.897 410.454C647.139 450.194 678.591 422.062 688.513 402.179L867.275 31.4258H958.31L771.273 420.389C791.143 438.599 824.242 413.774 839.131 387.303L931.813 193.639H1021.2L913.642 422.088C931.839 441.945 963.29 425.382 971.565 403.878L1072.52 193.665H1163.56L1064.25 402.218C1065.91 436.99 1120.52 403.878 1130.46 384.009L1148.67 344.295L1098.18 329.406L1106.45 312.857L1233.09 193.69H1247.98L1201.62 291.34L1219.82 307.889L1254.58 236.711L1368.8 187.05L1390.31 210.227L1428.39 193.677H1502.86L1388.66 430.363L1454.86 400.571L1555.83 193.677H1643.55L1537.62 415.461L1595.55 390.636L1689.88 193.665H1779.28L1674.99 408.833L1731.28 385.656L1900.12 29.7916H1991.14L1888.53 243.3L2044.11 119.166L2141.76 150.605L1931.56 258.202L1948.12 375.721L1967.98 367.446L2040.81 213.508L2189.75 177.089L2221.21 264.817L2246.04 211.861L2398.3 177.102L2409.89 299.589L2264.24 362.479L2287.41 311.171L2333.77 292.961L2317.2 251.588L2247.7 397.251L2399.96 551.163L2376.81 453.514L2320.33 471.114L2297.4 447.146L2386.75 428.677L2426.46 590.877L2409.9 610.733L2260.4 489.777L1638.61 683.584L1671.72 610.733L1092.4 749.782L1135.44 650.486L340.962 799.43L443.592 680.264L0 710.056L602.484 547.856L569.373 617.361L1310.89 524.679L1284.4 590.877L1814.06 508.116L1794.2 551.15L2226.16 461.801L2214.56 451.893Z" fill="#545A60"/>
</svg>
